<?xml version="1.0" encoding="utf-8"?>
<!-- Generator: Adobe Illustrator 28.0.0, SVG Export Plug-In . SVG Version: 6.00 Build 0)  -->
<svg version="1.1" id="Layer_1" xmlns="http://www.w3.org/2000/svg" xmlns:xlink="http://www.w3.org/1999/xlink" x="0px" y="0px"
	 viewBox="0 0 779.29 148.26" style="enable-background:new 0 0 779.29 148.26;" xml:space="preserve">
<style type="text/css">
	.st0{fill:#1A2F44;}
	.st1{fill:#6A152C;}
	.st2{fill:#215328;}
	.st3{fill:#1B304B;}
	.st4{fill:#711931;}
</style>
<g>
	<g>
		<g>
			<path class="st0" d="M362.48,50.45c3.27,1.53,5.93,3.7,7.98,6.51c2.06,2.81,3.45,6.07,4.18,9.77h-14.19
				c-0.78-1.92-1.99-3.42-3.63-4.49c-1.64-1.07-3.54-1.61-5.69-1.61c-2.97,0-5.37,1.11-7.2,3.32c-1.83,2.22-2.74,5.17-2.74,8.88
				c0,3.7,0.91,6.67,2.74,8.91c1.83,2.24,4.23,3.36,7.2,3.36c2.15,0,4.04-0.55,5.69-1.64c1.65-1.1,2.85-2.6,3.63-4.52h14.19
				c-1.1,5.67-3.69,10.18-7.78,13.54c-4.09,3.36-9.26,5.04-15.52,5.04c-4.8,0-8.99-1.04-12.58-3.12c-3.59-2.08-6.35-4.99-8.29-8.74
				c-1.94-3.75-2.91-8.02-2.91-12.82c0-4.8,0.97-9.07,2.91-12.82c1.94-3.75,4.71-6.66,8.29-8.74c3.59-2.08,7.78-3.12,12.58-3.12
				C355.5,48.15,359.21,48.92,362.48,50.45z"/>
			<path class="st0" d="M416.55,51.07c3.77,2.12,6.74,5.08,8.91,8.88c2.17,3.79,3.26,8.06,3.26,12.82c0,4.75-1.1,9.02-3.29,12.82
				c-2.19,3.79-5.17,6.75-8.94,8.88c-3.77,2.12-7.92,3.19-12.44,3.19c-4.52,0-8.68-1.06-12.47-3.19c-3.79-2.12-6.78-5.08-8.98-8.88
				c-2.19-3.79-3.29-8.06-3.29-12.82c0-4.75,1.1-9.02,3.29-12.82c2.19-3.79,5.18-6.75,8.98-8.88c3.79-2.12,7.95-3.19,12.47-3.19
				C408.62,47.88,412.79,48.94,416.55,51.07z M395.96,63.68c-1.97,2.22-2.95,5.24-2.95,9.08c0,3.75,0.98,6.74,2.95,8.98
				c1.96,2.24,4.66,3.36,8.09,3.36c3.38,0,6.05-1.12,8.02-3.36c1.96-2.24,2.95-5.23,2.95-8.98c0-3.84-0.97-6.86-2.91-9.08
				c-1.94-2.22-4.63-3.32-8.05-3.32C400.62,60.35,397.92,61.46,395.96,63.68z"/>
			<path class="st0" d="M448.25,86.94h15.15v10.21h-28.65V48.63h13.5V86.94z"/>
			<path class="st0" d="M504.35,51.07c3.77,2.12,6.74,5.08,8.91,8.88c2.17,3.79,3.26,8.06,3.26,12.82c0,4.75-1.1,9.02-3.29,12.82
				c-2.19,3.79-5.17,6.75-8.94,8.88c-3.77,2.12-7.92,3.19-12.44,3.19s-8.68-1.06-12.47-3.19c-3.79-2.12-6.78-5.08-8.98-8.88
				c-2.19-3.79-3.29-8.06-3.29-12.82c0-4.75,1.1-9.02,3.29-12.82c2.19-3.79,5.18-6.75,8.98-8.88c3.79-2.12,7.95-3.19,12.47-3.19
				C496.41,47.88,500.58,48.94,504.35,51.07z M483.75,63.68c-1.97,2.22-2.95,5.24-2.95,9.08c0,3.75,0.98,6.74,2.95,8.98
				c1.96,2.24,4.66,3.36,8.09,3.36c3.38,0,6.05-1.12,8.02-3.36c1.96-2.24,2.95-5.23,2.95-8.98c0-3.84-0.97-6.86-2.91-9.08
				c-1.94-2.22-4.63-3.32-8.05-3.32C488.41,60.35,485.72,61.46,483.75,63.68z"/>
			<path class="st0" d="M547.22,97.16l-9.8-17.89h-1.37v17.89h-13.5V48.63h21.31c3.88,0,7.18,0.67,9.9,2.02
				c2.72,1.35,4.76,3.21,6.13,5.59c1.37,2.38,2.06,5.05,2.06,8.02c0,3.38-0.94,6.32-2.81,8.81c-1.87,2.49-4.57,4.24-8.09,5.24
				l11.03,18.85H547.22z M536.05,70.22h6.65c3.75,0,5.62-1.69,5.62-5.07c0-1.6-0.47-2.85-1.4-3.77c-0.94-0.91-2.34-1.37-4.22-1.37
				h-6.65V70.22z"/>
			<path class="st0" d="M613.52,50.45c3.27,1.53,5.93,3.7,7.98,6.51c2.06,2.81,3.45,6.07,4.18,9.77H611.5
				c-0.78-1.92-1.99-3.42-3.63-4.49c-1.64-1.07-3.54-1.61-5.69-1.61c-2.97,0-5.37,1.11-7.2,3.32c-1.83,2.22-2.74,5.17-2.74,8.88
				c0,3.7,0.91,6.67,2.74,8.91c1.83,2.24,4.23,3.36,7.2,3.36c2.15,0,4.04-0.55,5.69-1.64c1.64-1.1,2.85-2.6,3.63-4.52h14.19
				c-1.1,5.67-3.69,10.18-7.78,13.54c-4.09,3.36-9.26,5.04-15.52,5.04c-4.8,0-8.99-1.04-12.58-3.12c-3.59-2.08-6.35-4.99-8.29-8.74
				c-1.94-3.75-2.91-8.02-2.91-12.82c0-4.8,0.97-9.07,2.91-12.82c1.94-3.75,4.71-6.66,8.29-8.74c3.59-2.08,7.78-3.12,12.58-3.12
				C606.54,48.15,610.26,48.92,613.52,50.45z"/>
			<path class="st0" d="M675.1,48.63v48.52h-13.43v-19.6h-16.45v19.6h-13.5V48.63h13.5V66.8h16.45V48.63H675.1z"/>
			<path class="st0" d="M696.07,59.39v8.02h15.69v10.21h-15.69v8.77h17.75v10.76h-31.25V48.63h31.25v10.76H696.07z"/>
			<path class="st0" d="M776.4,48.84v48.32h-13.36V69.74l-8.98,27.41h-11.58l-8.98-27.41v27.41h-13.5V48.84h16.52l11.93,31.39
				l11.58-31.39H776.4z"/>
		</g>
	</g>
	<g>
		<g>
			<path class="st1" d="M89.88,97.16h-13.5L63.29,70.08l-4.73,27.07h-13.5l8.5-48.45h13.5l13.09,27.41l4.73-27.41h13.5L89.88,97.16z
				"/>
			<path class="st1" d="M129.43,89.07h-17.2l-4.11,8.09H93.93l26.25-48.32h15.49l9.25,48.32h-14.26L129.43,89.07z M127.85,78.93
				l-2.47-15.76l-8.02,15.76H127.85z"/>
			<path class="st1" d="M179.59,72.35l14.32,24.81h-16.24L166.16,75.7l-3.77,21.45h-13.5l8.5-48.52h13.5l-3.7,21.04l19.12-21.04
				h16.11L179.59,72.35z"/>
			<path class="st1" d="M233.77,91.4c-1.62,1.92-3.79,3.44-6.51,4.56c-2.72,1.12-5.81,1.68-9.29,1.68c-5.76,0-10.25-1.38-13.47-4.15
				c-3.22-2.76-4.86-6.57-4.9-11.41h14.32c-0.18,1.74,0.12,3,0.92,3.8c0.8,0.8,1.91,1.2,3.32,1.2c1.14,0,2.09-0.3,2.84-0.89
				c0.75-0.59,1.22-1.42,1.41-2.47c0.04-0.18,0.07-0.43,0.07-0.75c0-1.37-0.58-2.46-1.75-3.26c-1.16-0.8-3.07-1.77-5.72-2.91
				c-2.56-1.05-4.67-2.07-6.34-3.05c-1.67-0.98-3.1-2.34-4.28-4.08c-1.19-1.74-1.78-3.91-1.78-6.51c0-0.91,0.11-2.06,0.34-3.43
				c0.69-3.7,2.75-6.6,6.2-8.7c3.45-2.1,7.55-3.15,12.3-3.15c5.99,0,10.46,1.33,13.43,3.98c2.97,2.65,4.52,6.33,4.66,11.03H225.1
				c0.09-1.51-0.19-2.63-0.86-3.36c-0.66-0.73-1.61-1.1-2.84-1.1c-1.14,0-2.08,0.32-2.81,0.96c-0.73,0.64-1.1,1.6-1.1,2.88
				c0,1.23,0.56,2.24,1.68,3.02c1.12,0.78,2.94,1.67,5.45,2.67c2.6,1.05,4.74,2.06,6.41,3.02c1.67,0.96,3.11,2.31,4.32,4.04
				c1.21,1.74,1.82,3.93,1.82,6.58c0,0.91-0.11,2.06-0.34,3.43C236.41,87.36,235.39,89.48,233.77,91.4z"/>
			<path class="st1" d="M292.06,48.63l-8.5,48.52h-13.43l3.43-19.6h-16.45l-3.43,19.6h-13.5l8.5-48.52h13.5l-3.15,18.16h16.45
				l3.15-18.16H292.06z"/>
			<path class="st1" d="M313.03,48.63l-8.5,48.52h-13.5l8.5-48.52H313.03z"/>
		</g>
	</g>
	<g>
		<path class="st2" d="M11.09,45.31c-1.11-0.55-1.57-1.89-1.02-3c0.55-1.11,1.89-1.57,3-1.02c1.11,0.55,1.57,1.89,1.02,3
			C13.54,45.39,12.2,45.85,11.09,45.31z"/>
		<path class="st2" d="M5.63,63.69c-1.22-0.23-2.02-1.4-1.79-2.61s1.4-2.02,2.61-1.79c1.22,0.23,2.02,1.4,1.79,2.61
			C8.02,63.11,6.85,63.91,5.63,63.69z"/>
		<path class="st2" d="M5.33,82.86c-1.23,0.11-2.32-0.8-2.43-2.03c-0.11-1.23,0.8-2.32,2.03-2.43c1.23-0.11,2.32,0.8,2.43,2.03
			C7.48,81.66,6.57,82.75,5.33,82.86z"/>
		<path class="st2" d="M10.22,101.4c-1.16,0.44-2.45-0.14-2.89-1.3c-0.44-1.16,0.14-2.45,1.3-2.89c1.16-0.44,2.45,0.14,2.89,1.3
			C11.96,99.67,11.38,100.96,10.22,101.4z"/>
		<path class="st2" d="M21.24,41.67c-1.43-0.96-1.8-2.9-0.84-4.33c0.96-1.43,2.9-1.8,4.33-0.84c1.43,0.96,1.8,2.9,0.84,4.33
			C24.6,42.25,22.67,42.63,21.24,41.67z"/>
		<path class="st2" d="M14.42,57.44c-1.63-0.54-2.52-2.31-1.98-3.94c0.54-1.63,2.31-2.52,3.94-1.98c1.63,0.54,2.52,2.31,1.98,3.94
			C17.82,57.1,16.06,57.99,14.42,57.44z"/>
		<path class="st2" d="M12.11,74.47c-1.72-0.08-3.05-1.54-2.97-3.26c0.08-1.72,1.54-3.05,3.26-2.97c1.72,0.08,3.05,1.54,2.97,3.26
			C15.29,73.23,13.83,74.56,12.11,74.47z"/>
		<path class="st2" d="M14.48,91.5c-1.68,0.39-3.35-0.66-3.74-2.34c-0.39-1.68,0.66-3.35,2.34-3.74c1.68-0.39,3.35,0.66,3.74,2.34
			C17.21,89.44,16.16,91.11,14.48,91.5z"/>
		<path class="st2" d="M21.36,107.25c-1.51,0.82-3.41,0.27-4.23-1.25c-0.82-1.51-0.27-3.41,1.25-4.23c1.51-0.82,3.41-0.27,4.23,1.25
			C23.43,104.53,22.87,106.42,21.36,107.25z"/>
		<path class="st2" d="M33.67,44.41c-2.23-2-2.42-5.42-0.42-7.65c2-2.23,5.42-2.42,7.65-0.42c2.23,2,2.42,5.42,0.42,7.65
			C39.32,46.22,35.9,46.41,33.67,44.41z"/>
		<path class="st2" d="M27.13,56.74c-2.69-1.32-3.79-4.57-2.47-7.25c1.32-2.69,4.57-3.79,7.25-2.47c2.69,1.32,3.79,4.57,2.47,7.25
			C33.06,56.95,29.82,58.06,27.13,56.74z"/>
		<path class="st2" d="M24.16,70.37c-2.94-0.55-4.88-3.38-4.34-6.32c0.55-2.94,3.38-4.88,6.32-4.34c2.94,0.55,4.88,3.38,4.34,6.32
			C29.93,68.97,27.1,70.92,24.16,70.37z"/>
		<path class="st2" d="M24.98,84.29c-2.98,0.27-5.61-1.93-5.88-4.91c-0.27-2.98,1.93-5.61,4.91-5.88c2.98-0.27,5.61,1.93,5.88,4.91
			C30.16,81.4,27.96,84.03,24.98,84.29z"/>
		<path class="st2" d="M29.52,97.48c-2.8,1.06-5.93-0.35-6.99-3.15c-1.06-2.8,0.35-5.93,3.15-6.99c2.8-1.06,5.93,0.35,6.99,3.15
			C33.73,93.29,32.32,96.42,29.52,97.48z"/>
		<path class="st2" d="M37.46,108.96c-2.41,1.78-5.8,1.26-7.58-1.14c-1.78-2.41-1.26-5.8,1.14-7.58c2.41-1.78,5.8-1.26,7.58,1.14
			C40.38,103.79,39.86,107.18,37.46,108.96z"/>
	</g>
	<g>
		<g>
			<path class="st3" d="M19.93,117.94c-0.99,0.73-2.4,0.52-3.13-0.47c-0.73-1-0.52-2.4,0.47-3.13c1-0.73,2.4-0.52,3.13,0.47
				C21.13,115.8,20.92,117.2,19.93,117.94z"/>
			<path class="st3" d="M33.74,131.24c-0.76,0.98-2.17,1.15-3.14,0.39c-0.98-0.76-1.15-2.17-0.39-3.14
				c0.76-0.98,2.17-1.15,3.14-0.39C34.32,128.86,34.5,130.27,33.74,131.24z"/>
			<path class="st3" d="M50.62,140.33c-0.47,1.14-1.78,1.69-2.92,1.22c-1.14-0.47-1.69-1.78-1.22-2.92
				c0.47-1.14,1.78-1.69,2.92-1.22C50.54,137.88,51.09,139.18,50.62,140.33z"/>
			<path class="st3" d="M69.33,144.52c-0.14,1.23-1.25,2.11-2.48,1.97c-1.23-0.14-2.11-1.25-1.97-2.48
				c0.14-1.23,1.25-2.11,2.48-1.97C68.59,142.18,69.48,143.29,69.33,144.52z"/>
			<path class="st3" d="M88.48,143.51c0.19,1.22-0.64,2.37-1.86,2.56c-1.22,0.19-2.37-0.64-2.56-1.86
				c-0.19-1.22,0.64-2.37,1.86-2.56C87.14,141.45,88.29,142.29,88.48,143.51z"/>
			<path class="st3" d="M106.65,137.37c0.52,1.12,0.02,2.45-1.1,2.97c-1.12,0.52-2.45,0.02-2.97-1.1c-0.52-1.12-0.02-2.45,1.1-2.97
				C104.8,135.75,106.13,136.25,106.65,137.37z"/>
			<path class="st3" d="M32.23,120.56c-1.23,1.2-3.21,1.17-4.41-0.06c-1.2-1.23-1.17-3.21,0.06-4.41c1.23-1.2,3.21-1.17,4.41,0.06
				C33.49,117.38,33.46,119.36,32.23,120.56z"/>
			<path class="st3" d="M46.29,130.45c-0.86,1.49-2.77,2-4.26,1.13c-1.49-0.86-2-2.77-1.13-4.26c0.86-1.49,2.77-2,4.26-1.13
				C46.64,127.05,47.15,128.96,46.29,130.45z"/>
			<path class="st3" d="M62.49,136.17c-0.43,1.67-2.13,2.67-3.8,2.24c-1.67-0.43-2.67-2.13-2.24-3.8c0.43-1.67,2.13-2.67,3.8-2.24
				C61.92,132.81,62.92,134.51,62.49,136.17z"/>
			<path class="st3" d="M79.64,137.32c0.04,1.72-1.33,3.15-3.05,3.18c-1.72,0.04-3.15-1.33-3.18-3.05
				c-0.04-1.72,1.33-3.15,3.05-3.18C78.18,134.23,79.6,135.6,79.64,137.32z"/>
			<path class="st3" d="M96.46,133.8c0.5,1.65-0.43,3.39-2.08,3.89c-1.65,0.5-3.39-0.43-3.89-2.08c-0.5-1.65,0.43-3.39,2.08-3.89
				C94.22,131.22,95.96,132.15,96.46,133.8z"/>
			<path class="st3" d="M111.71,125.87c0.92,1.45,0.5,3.38-0.96,4.31c-1.45,0.92-3.38,0.5-4.31-0.96c-0.92-1.45-0.5-3.38,0.96-4.31
				C108.85,123.98,110.78,124.41,111.71,125.87z"/>
			<path class="st3" d="M48.19,117.87c-1.84,2.36-5.24,2.78-7.61,0.94c-2.36-1.84-2.78-5.24-0.94-7.61
				c1.84-2.36,5.24-2.78,7.61-0.94C49.61,112.1,50.03,115.51,48.19,117.87z"/>
			<path class="st3" d="M60.93,123.55c-1.13,2.77-4.3,4.09-7.07,2.96c-2.77-1.13-4.09-4.3-2.96-7.07c1.13-2.77,4.3-4.09,7.07-2.96
				C60.74,117.61,62.07,120.78,60.93,123.55z"/>
			<path class="st3" d="M74.73,125.58c-0.35,2.97-3.04,5.1-6.01,4.76c-2.97-0.35-5.1-3.04-4.76-6.01c0.35-2.97,3.04-5.1,6.01-4.76
				C72.95,119.92,75.08,122.61,74.73,125.58z"/>
			<path class="st3" d="M88.57,123.81c0.47,2.96-1.55,5.73-4.5,6.2c-2.96,0.47-5.73-1.55-6.2-4.5c-0.47-2.96,1.55-5.73,4.5-6.2
				C85.33,118.84,88.1,120.86,88.57,123.81z"/>
			<path class="st3" d="M101.42,118.38c1.25,2.72,0.06,5.94-2.66,7.19c-2.72,1.25-5.94,0.06-7.19-2.66
				c-1.25-2.72-0.06-5.94,2.66-7.19C96.95,114.47,100.17,115.66,101.42,118.38z"/>
		</g>
	</g>
	<g>
		<g>
			<path class="st4" d="M82.69,23.68c0.75-2.9,3.7-4.64,6.6-3.89c2.9,0.75,4.64,3.7,3.89,6.6c-0.75,2.9-3.7,4.64-6.6,3.89
				C83.69,29.53,81.95,26.58,82.69,23.68z"/>
			<path class="st4" d="M90.62,5.65c0.31-1.2,1.53-1.92,2.73-1.61c1.2,0.31,1.92,1.53,1.61,2.73c-0.31,1.2-1.53,1.92-2.73,1.61
				C91.04,8.07,90.32,6.85,90.62,5.65z"/>
			<path class="st4" d="M71.52,4.05c-0.03-1.24,0.96-2.26,2.19-2.29c1.24-0.03,2.26,0.96,2.29,2.19c0.03,1.24-0.96,2.26-2.19,2.29
				C72.57,6.26,71.54,5.28,71.52,4.05z"/>
			<path class="st4" d="M52.68,7.66c-0.36-1.18,0.31-2.43,1.49-2.79c1.18-0.36,2.43,0.31,2.79,1.49c0.36,1.18-0.31,2.43-1.49,2.79
				C54.29,9.51,53.04,8.84,52.68,7.66z"/>
			<path class="st4" d="M35.52,16.21c-0.66-1.04-0.36-2.43,0.69-3.09c1.04-0.66,2.43-0.36,3.09,0.69c0.66,1.04,0.36,2.43-0.69,3.09
				C37.57,17.56,36.19,17.25,35.52,16.21z"/>
			<path class="st4" d="M21.31,29.08c-0.92-0.82-1-2.24-0.17-3.16c0.82-0.92,2.24-1,3.16-0.17c0.92,0.82,1,2.24,0.17,3.16
				C23.65,29.83,22.23,29.9,21.31,29.08z"/>
			<path class="st4" d="M108.59,12.35c0.62-1.07,1.99-1.43,3.06-0.81c1.07,0.62,1.43,1.99,0.81,3.06c-0.62,1.07-1.99,1.43-3.06,0.81
				C108.33,14.79,107.97,13.42,108.59,12.35z"/>
			<path class="st4" d="M79.41,11.38c0.2-1.71,1.75-2.94,3.46-2.74c1.71,0.2,2.94,1.75,2.74,3.46c-0.2,1.71-1.75,2.94-3.46,2.74
				C80.43,14.64,79.21,13.09,79.41,11.38z"/>
			<path class="st4" d="M62.26,12.59c-0.27-1.7,0.89-3.3,2.59-3.57c1.7-0.27,3.3,0.89,3.57,2.59s-0.89,3.3-2.59,3.57
				C64.13,15.45,62.53,14.29,62.26,12.59z"/>
			<path class="st4" d="M46.08,18.38c-0.72-1.57-0.03-3.42,1.53-4.14c1.57-0.72,3.42-0.03,4.14,1.53c0.72,1.57,0.03,3.42-1.53,4.14
				C48.65,20.63,46.8,19.94,46.08,18.38z"/>
			<path class="st4" d="M32.06,28.31c-1.11-1.31-0.95-3.28,0.36-4.4c1.31-1.11,3.28-0.95,4.4,0.36c1.11,1.31,0.95,3.28-0.36,4.4
				C35.14,29.79,33.17,29.63,32.06,28.31z"/>
			<path class="st4" d="M111.56,22.75c1.06-1.36,3.02-1.6,4.38-0.54c1.36,1.06,1.6,3.02,0.54,4.38c-1.06,1.36-3.02,1.6-4.38,0.54
				C110.74,26.07,110.5,24.11,111.56,22.75z"/>
			<path class="st4" d="M96.29,14.86c0.65-1.59,2.48-2.35,4.07-1.7c1.59,0.65,2.35,2.48,1.7,4.07c-0.65,1.59-2.48,2.35-4.07,1.7
				C96.4,18.28,95.64,16.45,96.29,14.86z"/>
			<path class="st4" d="M68.74,23.55c-0.06-2.99,2.31-5.47,5.3-5.53c2.99-0.06,5.47,2.31,5.53,5.3c0.06,2.99-2.31,5.47-5.3,5.53
				C71.28,28.91,68.81,26.54,68.74,23.55z"/>
			<path class="st4" d="M55.28,27.18c-0.87-2.86,0.75-5.89,3.62-6.76c2.86-0.87,5.89,0.75,6.76,3.62c0.87,2.86-0.75,5.89-3.62,6.76
				C59.17,31.66,56.14,30.04,55.28,27.18z"/>
			<path class="st4" d="M43.29,34.31c-1.61-2.52-0.87-5.87,1.66-7.48c2.52-1.61,5.87-0.87,7.48,1.66c1.61,2.52,0.87,5.87-1.66,7.48
				C48.24,37.58,44.9,36.84,43.29,34.31z"/>
			<path class="st4" d="M96.09,27.57c1.5-2.59,4.82-3.47,7.41-1.97c2.59,1.5,3.47,4.82,1.97,7.41c-1.5,2.59-4.82,3.47-7.41,1.97
				C95.47,33.48,94.59,30.16,96.09,27.57z"/>
		</g>
	</g>
	<g>
		<path d="M199.91,130.27c-0.46,0.77-1.14,1.39-2.04,1.86c-0.9,0.47-2,0.7-3.29,0.7c-1.28,0-2.41-0.22-3.42-0.65
			c-1-0.43-1.81-1.06-2.41-1.87c-0.6-0.82-0.95-1.77-1.03-2.86h3.83c0.08,0.73,0.38,1.34,0.88,1.82s1.17,0.73,2,0.73
			c0.75,0,1.32-0.2,1.72-0.6c0.4-0.4,0.6-0.91,0.6-1.54c0-0.56-0.16-1.02-0.48-1.39c-0.32-0.37-0.73-0.66-1.22-0.88
			s-1.17-0.48-2.04-0.77c-1.12-0.37-2.04-0.74-2.75-1.11c-0.71-0.37-1.32-0.9-1.82-1.59c-0.5-0.7-0.75-1.61-0.75-2.73
			c0-1.55,0.56-2.77,1.67-3.66c1.11-0.89,2.59-1.34,4.42-1.34c1.9,0,3.42,0.46,4.55,1.38c1.13,0.92,1.77,2.14,1.93,3.67h-3.88
			c-0.1-0.65-0.37-1.18-0.82-1.59c-0.44-0.42-1.05-0.62-1.81-0.62c-0.66,0-1.2,0.17-1.61,0.52c-0.41,0.35-0.61,0.85-0.61,1.52
			c0,0.53,0.16,0.97,0.47,1.31c0.31,0.35,0.71,0.63,1.2,0.85c0.48,0.22,1.14,0.47,1.98,0.74c1.16,0.41,2.1,0.79,2.82,1.15
			c0.72,0.36,1.34,0.89,1.85,1.61c0.51,0.71,0.77,1.65,0.77,2.81C200.6,128.66,200.37,129.5,199.91,130.27z"/>
		<path d="M221.51,126.28h-10.35c0.05,1.26,0.39,2.18,1.02,2.78c0.63,0.6,1.41,0.89,2.35,0.89c0.83,0,1.53-0.2,2.08-0.61
			c0.55-0.41,0.91-0.96,1.06-1.66h3.8c-0.19,0.99-0.59,1.87-1.2,2.65c-0.61,0.78-1.4,1.39-2.36,1.84c-0.96,0.44-2.03,0.66-3.2,0.66
			c-1.38,0-2.6-0.29-3.67-0.88c-1.07-0.59-1.9-1.42-2.5-2.51c-0.6-1.09-0.89-2.37-0.89-3.85c0-1.48,0.3-2.77,0.89-3.86
			c0.6-1.1,1.43-1.93,2.5-2.51c1.07-0.58,2.3-0.87,3.67-0.87c1.39,0,2.61,0.29,3.66,0.87c1.05,0.58,1.85,1.37,2.42,2.38
			c0.57,1.01,0.85,2.16,0.85,3.46C221.64,125.42,221.6,125.82,221.51,126.28z M217.11,122.08c-0.65-0.59-1.46-0.89-2.41-0.89
			c-0.97,0-1.79,0.3-2.45,0.89c-0.66,0.6-1.03,1.47-1.1,2.63h6.86C218.07,123.55,217.77,122.67,217.11,122.08z"/>
		<path d="M234.97,119.11c0.87-0.52,1.84-0.78,2.91-0.78v3.85h-1.05c-2.64,0-3.95,1.22-3.95,3.67v6.81h-3.6v-14.13h3.6v2.7
			C233.41,120.33,234.11,119.62,234.97,119.11z"/>
		<path d="M251.12,129.06l3.57-10.53h3.83l-5.23,14.13h-4.39l-5.23-14.13h3.85L251.12,129.06z"/>
		<path d="M265.8,113.06c0.41-0.37,0.94-0.55,1.61-0.55s1.2,0.18,1.61,0.55c0.41,0.37,0.61,0.84,0.61,1.41
			c0,0.56-0.2,1.02-0.61,1.39c-0.41,0.37-0.94,0.55-1.61,0.55s-1.2-0.18-1.61-0.55c-0.41-0.37-0.61-0.83-0.61-1.39
			C265.19,113.9,265.4,113.43,265.8,113.06z M269.2,118.53v14.13h-3.6v-14.13H269.2z"/>
		<path d="M288.46,119.83c1.22,0.99,1.98,2.33,2.28,4.03h-3.8c-0.15-0.75-0.5-1.34-1.05-1.77c-0.54-0.43-1.23-0.65-2.07-0.65
			c-0.95,0-1.75,0.35-2.38,1.06c-0.64,0.71-0.96,1.74-0.96,3.1s0.32,2.39,0.96,3.1c0.64,0.71,1.43,1.06,2.38,1.06
			c0.83,0,1.52-0.22,2.07-0.65c0.54-0.43,0.89-1.02,1.05-1.77h3.8c-0.31,1.7-1.07,3.04-2.28,4.03c-1.22,0.99-2.73,1.48-4.55,1.48
			c-1.38,0-2.6-0.29-3.67-0.88c-1.07-0.59-1.9-1.42-2.5-2.51c-0.6-1.09-0.89-2.37-0.89-3.85c0-1.48,0.3-2.77,0.89-3.86
			c0.6-1.1,1.43-1.93,2.5-2.51c1.07-0.58,2.3-0.87,3.67-0.87C285.73,118.35,287.25,118.85,288.46,119.83z"/>
		<path d="M311.55,126.28H301.2c0.05,1.26,0.39,2.18,1.02,2.78c0.63,0.6,1.41,0.89,2.35,0.89c0.83,0,1.53-0.2,2.08-0.61
			c0.55-0.41,0.91-0.96,1.06-1.66h3.8c-0.19,0.99-0.59,1.87-1.2,2.65c-0.61,0.78-1.4,1.39-2.36,1.84c-0.96,0.44-2.03,0.66-3.2,0.66
			c-1.38,0-2.6-0.29-3.67-0.88c-1.07-0.59-1.9-1.42-2.5-2.51c-0.6-1.09-0.89-2.37-0.89-3.85c0-1.48,0.3-2.77,0.89-3.86
			c0.6-1.1,1.43-1.93,2.5-2.51c1.07-0.58,2.3-0.87,3.67-0.87c1.39,0,2.61,0.29,3.66,0.87c1.05,0.58,1.85,1.37,2.42,2.38
			c0.57,1.01,0.85,2.16,0.85,3.46C311.68,125.42,311.64,125.82,311.55,126.28z M307.15,122.08c-0.65-0.59-1.46-0.89-2.41-0.89
			c-0.97,0-1.79,0.3-2.45,0.89c-0.66,0.6-1.03,1.47-1.1,2.63h6.86C308.11,123.55,307.81,122.67,307.15,122.08z"/>
		<path d="M336.98,123.5l7.62,9.15h-4.36l-6.66-8.24v8.24h-3.6v-18h3.6v8.08l6.68-8.08h4.34L336.98,123.5z"/>
		<path d="M364.85,126.28h-10.35c0.05,1.26,0.39,2.18,1.02,2.78c0.63,0.6,1.41,0.89,2.35,0.89c0.83,0,1.53-0.2,2.08-0.61
			c0.55-0.41,0.91-0.96,1.06-1.66h3.8c-0.19,0.99-0.59,1.87-1.2,2.65c-0.61,0.78-1.4,1.39-2.36,1.84c-0.96,0.44-2.03,0.66-3.2,0.66
			c-1.38,0-2.6-0.29-3.67-0.88c-1.07-0.59-1.9-1.42-2.5-2.51c-0.6-1.09-0.89-2.37-0.89-3.85c0-1.48,0.3-2.77,0.89-3.86
			c0.6-1.1,1.43-1.93,2.5-2.51c1.07-0.58,2.3-0.87,3.67-0.87c1.39,0,2.61,0.29,3.66,0.87c1.05,0.58,1.85,1.37,2.42,2.38
			c0.57,1.01,0.85,2.16,0.85,3.46C364.98,125.42,364.93,125.82,364.85,126.28z M360.45,122.08c-0.65-0.59-1.46-0.89-2.41-0.89
			c-0.97,0-1.79,0.3-2.45,0.89c-0.66,0.6-1.03,1.47-1.1,2.63h6.86C361.41,123.55,361.1,122.67,360.45,122.08z"/>
		<path d="M385.78,126.28h-10.35c0.05,1.26,0.39,2.18,1.02,2.78c0.63,0.6,1.41,0.89,2.35,0.89c0.83,0,1.53-0.2,2.08-0.61
			c0.55-0.41,0.91-0.96,1.06-1.66h3.8c-0.19,0.99-0.59,1.87-1.2,2.65c-0.61,0.78-1.4,1.39-2.36,1.84c-0.96,0.44-2.03,0.66-3.2,0.66
			c-1.38,0-2.6-0.29-3.67-0.88c-1.07-0.59-1.9-1.42-2.5-2.51c-0.6-1.09-0.89-2.37-0.89-3.85c0-1.48,0.3-2.77,0.89-3.86
			c0.6-1.1,1.43-1.93,2.5-2.51c1.07-0.58,2.3-0.87,3.67-0.87c1.39,0,2.61,0.29,3.66,0.87c1.05,0.58,1.85,1.37,2.42,2.38
			c0.57,1.01,0.85,2.16,0.85,3.46C385.91,125.42,385.87,125.82,385.78,126.28z M381.38,122.08c-0.65-0.59-1.46-0.89-2.41-0.89
			c-0.97,0-1.79,0.3-2.45,0.89c-0.66,0.6-1.03,1.47-1.1,2.63h6.86C382.34,123.55,382.04,122.67,381.38,122.08z"/>
		<path d="M405.21,119.22c0.95,0.58,1.7,1.41,2.23,2.51c0.54,1.1,0.8,2.38,0.8,3.86c0,1.48-0.27,2.77-0.8,3.86
			c-0.54,1.1-1.28,1.93-2.23,2.51c-0.95,0.58-2.02,0.87-3.21,0.87c-1.19,0-2.21-0.28-3.05-0.85c-0.84-0.57-1.44-1.33-1.8-2.28v9.69
			h-3.6v-20.86h3.6v2.93c0.36-0.95,0.96-1.71,1.8-2.27c0.84-0.56,1.86-0.84,3.05-0.84C403.19,118.35,404.26,118.64,405.21,119.22z
			 M398.19,122.6c-0.71,0.74-1.06,1.74-1.06,3c0,1.24,0.35,2.23,1.06,2.97c0.71,0.74,1.6,1.11,2.69,1.11c1.12,0,2.02-0.36,2.7-1.08
			c0.68-0.72,1.02-1.72,1.02-3s-0.34-2.28-1.02-3.01c-0.68-0.73-1.58-1.1-2.7-1.1C399.79,121.49,398.89,121.86,398.19,122.6z"/>
		<path d="M440.28,116.21c1.48,1.16,2.46,2.73,2.93,4.72h-3.77c-0.39-0.97-1-1.73-1.82-2.3c-0.82-0.56-1.81-0.84-2.97-0.84
			c-0.95,0-1.81,0.24-2.58,0.71c-0.77,0.48-1.36,1.16-1.79,2.04c-0.43,0.88-0.64,1.92-0.64,3.11c0,1.17,0.21,2.2,0.64,3.09
			c0.42,0.88,1.02,1.56,1.79,2.04s1.62,0.71,2.58,0.71c1.16,0,2.15-0.28,2.97-0.84c0.82-0.56,1.43-1.33,1.82-2.3h3.77
			c-0.48,1.99-1.45,3.56-2.93,4.72c-1.48,1.16-3.34,1.73-5.58,1.73c-1.72,0-3.23-0.39-4.55-1.16c-1.32-0.77-2.34-1.86-3.06-3.25
			c-0.72-1.39-1.08-2.97-1.08-4.74c0-1.79,0.36-3.37,1.08-4.77c0.72-1.39,1.74-2.48,3.05-3.25c1.31-0.77,2.83-1.16,4.56-1.16
			C436.94,114.48,438.8,115.06,440.28,116.21z"/>
		<path d="M461.25,119.22c1.1,0.58,1.96,1.41,2.59,2.51c0.63,1.1,0.94,2.38,0.94,3.86c0,1.48-0.31,2.76-0.94,3.85
			c-0.63,1.09-1.49,1.92-2.59,2.51c-1.1,0.59-2.33,0.88-3.71,0.88c-1.38,0-2.61-0.29-3.71-0.88c-1.1-0.59-1.96-1.42-2.59-2.51
			c-0.63-1.09-0.94-2.37-0.94-3.85c0-1.48,0.31-2.77,0.94-3.86c0.63-1.1,1.49-1.93,2.59-2.51c1.1-0.58,2.33-0.87,3.71-0.87
			C458.92,118.35,460.16,118.64,461.25,119.22z M454.99,122.52c-0.7,0.71-1.05,1.73-1.05,3.07s0.35,2.37,1.05,3.07
			c0.7,0.71,1.55,1.06,2.55,1.06s1.85-0.35,2.55-1.06c0.7-0.71,1.05-1.73,1.05-3.07s-0.35-2.37-1.05-3.07
			c-0.7-0.71-1.55-1.06-2.55-1.06S455.69,121.82,454.99,122.52z"/>
		<path d="M482.67,119.22c1.1,0.58,1.96,1.41,2.59,2.51c0.63,1.1,0.94,2.38,0.94,3.86c0,1.48-0.31,2.76-0.94,3.85
			c-0.63,1.09-1.49,1.92-2.59,2.51c-1.1,0.59-2.33,0.88-3.71,0.88c-1.38,0-2.61-0.29-3.71-0.88c-1.1-0.59-1.96-1.42-2.59-2.51
			c-0.63-1.09-0.94-2.37-0.94-3.85c0-1.48,0.31-2.77,0.94-3.86c0.63-1.1,1.49-1.93,2.59-2.51c1.1-0.58,2.33-0.87,3.71-0.87
			C480.34,118.35,481.58,118.64,482.67,119.22z M476.41,122.52c-0.7,0.71-1.05,1.73-1.05,3.07s0.35,2.37,1.05,3.07
			c0.7,0.71,1.55,1.06,2.55,1.06s1.85-0.35,2.55-1.06c0.7-0.71,1.05-1.73,1.05-3.07s-0.35-2.37-1.05-3.07
			c-0.7-0.71-1.55-1.06-2.55-1.06S477.11,121.82,476.41,122.52z"/>
		<path d="M497.45,113.79v18.87h-3.6v-18.87H497.45z"/>
		<path d="M527.44,129.04h-7.22l-1.28,3.62h-3.8l6.63-17.8h4.11l6.6,17.8h-3.8L527.44,129.04z M526.47,126.31l-2.65-7.6l-2.65,7.6
			H526.47z"/>
		<path d="M543.12,113.79v18.87h-3.6v-18.87H543.12z"/>
		<path d="M555.08,113.79v18.87h-3.6v-18.87H555.08z"/>
		<path d="M588.82,128.35c-0.75,1.36-1.83,2.42-3.25,3.18c-1.42,0.76-3.11,1.13-5.06,1.13h-6.4v-18h6.4c1.95,0,3.64,0.37,5.06,1.11
			c1.42,0.74,2.5,1.79,3.25,3.14c0.75,1.35,1.12,2.93,1.12,4.73C589.94,125.42,589.57,126.99,588.82,128.35z M584.7,127.92
			c1.06-1.02,1.59-2.45,1.59-4.28c0-1.85-0.53-3.29-1.59-4.31c-1.06-1.02-2.56-1.53-4.5-1.53h-2.5v11.65h2.5
			C582.14,129.45,583.64,128.94,584.7,127.92z"/>
		<path d="M606.34,119.19c0.85,0.56,1.45,1.32,1.81,2.27v-2.93h3.57v14.13h-3.57v-2.96c-0.36,0.95-0.96,1.71-1.81,2.28
			c-0.85,0.57-1.87,0.85-3.06,0.85c-1.19,0-2.26-0.29-3.21-0.87c-0.95-0.58-1.7-1.42-2.23-2.51c-0.54-1.1-0.8-2.38-0.8-3.86
			c0-1.48,0.27-2.77,0.8-3.86c0.54-1.1,1.28-1.93,2.23-2.51c0.95-0.58,2.02-0.87,3.21-0.87
			C604.47,118.35,605.49,118.63,606.34,119.19z M601.69,122.59c-0.68,0.73-1.02,1.73-1.02,3.01s0.34,2.27,1.02,3
			c0.68,0.72,1.58,1.08,2.7,1.08c1.09,0,1.98-0.37,2.69-1.11c0.71-0.74,1.06-1.73,1.06-2.97c0-1.26-0.35-2.26-1.06-3
			c-0.71-0.74-1.6-1.11-2.69-1.11C603.28,121.49,602.38,121.86,601.69,122.59z"/>
		<path d="M622.5,118.53l3.85,9.59l3.57-9.59h3.95l-8.64,20.86h-3.98l3.19-7.14l-5.94-13.72H622.5z"/>
		<path d="M654.3,128.91v3.75h-3.88v-3.75H654.3z"/>
		<path d="M664.78,128.91v3.75h-3.88v-3.75H664.78z"/>
		<path d="M675.26,128.91v3.75h-3.88v-3.75H675.26z"/>
	</g>
</g>
</svg>
